<svg width="320" height="128" viewBox="0 0 320 128" fill="none" xmlns="http://www.w3.org/2000/svg">
<g clip-path="url(#clip0_43927_45)">
<path d="M74.3536 15.9239H68.9999C66.8687 15.9239 65.1411 17.6365 65.1411 19.7491V59.0621C65.1411 61.1747 66.8687 62.8872 68.9999 62.8872H74.3536C76.4847 62.8872 78.2123 61.1747 78.2123 59.0621V19.7491C78.2123 17.6365 76.4847 15.9239 74.3536 15.9239Z" fill="white"/>
<path d="M55.0967 15.9239C53.4955 15.9359 51.9311 16.4016 50.5881 17.266C49.245 18.1304 48.1793 19.3574 47.5167 20.8025L33.2981 50.7469C32.9627 51.4558 32.292 52.6094 31.7344 52.6094C31.1768 52.6094 30.5222 51.4558 30.1667 50.7469L15.851 20.8025C15.1888 19.3571 14.1232 18.1298 12.7801 17.2654C11.4369 16.4009 9.87236 15.9354 8.27101 15.9239H0L22.5704 59.2543C24.8048 63.5081 29.3868 63.42 31.7344 63.42C34.9668 63.42 38.773 63.2397 40.7811 59.2543L63.3516 15.9239H55.0967Z" fill="white"/>
<path d="M304.479 8.74634C304.479 7.73185 304.072 6.7589 303.349 6.04155C302.625 5.32419 301.643 4.92119 300.62 4.92119H295.266C294.243 4.92119 293.261 5.32419 292.538 6.04155C291.814 6.7589 291.408 7.73185 291.408 8.74634V47.5587C291.408 53.4947 293.529 56.9513 297.327 59.4307C301.016 61.8339 305.263 62.8873 313.194 62.8873H317.493C318.516 62.8863 319.497 62.4829 320.221 61.7658C320.944 61.0487 321.351 60.0763 321.352 59.0622V54.9126H318.12C315.772 54.9126 310.847 54.8245 307.95 52.8738C304.151 50.3945 304.487 45.9605 304.487 42.7722L304.479 8.74634Z" fill="white"/>
<path d="M220.79 54.9126C218.443 54.9126 213.517 54.8245 210.62 52.8738C206.822 50.3945 207.157 45.9605 207.157 42.7722V23.8988H219.833C220.856 23.8988 221.837 23.4958 222.561 22.7784C223.285 22.0611 223.691 21.0881 223.691 20.0736V15.924H207.141V8.74634C207.14 7.73217 206.733 6.75985 206.01 6.04272C205.287 5.32559 204.306 4.92225 203.283 4.92119H197.925C196.902 4.92225 195.921 5.32559 195.198 6.04272C194.474 6.75985 194.067 7.73217 194.066 8.74634V15.9561H166.805V8.74634C166.805 7.73185 166.398 6.7589 165.674 6.04155C164.951 5.32419 163.969 4.92119 162.946 4.92119H157.592C156.569 4.92225 155.588 5.32559 154.865 6.04272C154.141 6.75985 153.735 7.73217 153.734 8.74634V15.9561H145.576V20.1056C145.577 21.1198 145.984 22.0921 146.707 22.8093C147.43 23.5264 148.411 23.9297 149.434 23.9308H153.734V47.5587C153.734 53.4947 155.855 56.9513 159.653 59.4307C163.342 61.8339 167.589 62.8873 175.52 62.8873H179.819C180.842 62.8863 181.823 62.4829 182.547 61.7658C183.27 61.0487 183.677 60.0763 183.678 59.0622V54.9126H180.446C178.098 54.9126 173.173 54.8245 170.28 52.8738C166.477 50.3945 166.813 45.9605 166.813 42.7722V23.8988H194.074V47.5587C194.074 53.4947 196.2 56.9513 199.998 59.4307C203.687 61.8339 207.929 62.8873 215.865 62.8873H220.16C221.183 62.8873 222.165 62.4843 222.888 61.767C223.612 61.0496 224.019 60.0767 224.019 59.0622V54.9126H220.79Z" fill="white"/>
<path d="M140.788 59.0634V54.9138H111.85C107.046 54.9138 101.567 54.3811 99.8942 49.3303C99.4457 47.9124 99.1103 44.9003 99.1103 42.8615H133.524C135.871 42.8615 138.106 42.5091 139.891 41.0912C142.352 39.1405 142.687 36.3928 142.687 34.0016C142.687 28.0656 141.233 22.2177 134.307 18.7811C128.832 16.0334 121.681 15.769 114.755 15.769C109.167 15.769 99.1103 15.769 92.6293 20.199C86.1483 24.629 85.5907 31.0977 85.5907 39.8695C85.5907 46.0739 85.9261 52.5426 89.8373 56.9726C94.7546 62.464 101.902 62.9086 107.939 62.9086H136.93C137.438 62.908 137.941 62.8081 138.41 62.6144C138.88 62.4207 139.306 62.1372 139.664 61.78C140.023 61.4227 140.307 60.9989 140.499 60.5328C140.692 60.0666 140.791 59.5672 140.788 59.0634ZM129.16 32.1391C129.16 33.3808 128.824 34.8868 126.255 34.8868H107.668C102.941 34.8868 99.1103 37.0297 99.1103 39.6933V34.8868C99.2235 31.7866 99.1103 29.2151 101.793 26.8239C105.369 23.6196 110.731 23.7237 114.194 23.7237C117.883 23.7237 122.129 23.9 125.37 25.8506C127.269 27.0002 129.16 29.2152 129.16 32.1391Z" fill="white"/>
<path d="M282.13 59.0634V54.9138H253.204C248.4 54.9138 242.925 54.3811 241.248 49.3303C240.8 47.9124 240.464 44.9003 240.464 42.8615H274.882C277.225 42.8615 279.46 42.5091 281.25 41.0912C283.706 39.1405 284.042 36.3928 284.042 34.0016C284.042 28.0656 282.591 22.2177 275.662 18.7811C270.187 16.0334 263.039 15.769 256.109 15.769C250.521 15.769 240.464 15.769 233.987 20.199C227.51 24.629 226.941 31.0777 226.941 39.8495C226.941 46.0539 227.276 52.5226 231.183 56.9525C236.101 62.4439 243.252 62.8885 249.285 62.8885H278.256C278.764 62.8906 279.267 62.7933 279.737 62.602C280.207 62.4107 280.635 62.1293 280.995 61.7738C281.355 61.4184 281.64 60.9961 281.835 60.5309C282.03 60.0658 282.13 59.5671 282.13 59.0634ZM270.51 32.1391C270.51 33.3808 270.175 34.8868 267.605 34.8868H249.018C244.291 34.8868 240.456 37.0297 240.456 39.6933V34.8868C240.57 31.7866 240.456 29.2151 243.139 26.8239C246.715 23.6196 252.081 23.7237 255.544 23.7237C259.229 23.7237 263.475 23.9 266.716 25.8506C268.611 27.0002 270.51 29.2152 270.51 32.1391Z" fill="white"/>
<path d="M74.3577 2.78259H69.004C68.4971 2.78207 67.9952 2.88066 67.5268 3.07271C67.0584 3.26475 66.6327 3.54648 66.2743 3.90178C65.9159 4.25708 65.6317 4.67899 65.438 5.14332C65.2442 5.60765 65.1448 6.10527 65.1453 6.60775V15.9243H65.1978C65.5655 13.7534 68.0545 11.4903 71.6627 11.4903H74.3416C75.365 11.4903 76.3465 11.0873 77.0701 10.37C77.7938 9.65262 78.2003 8.67967 78.2003 7.66518V6.60775C78.2003 5.59602 77.796 4.6255 77.0758 3.9086C76.3557 3.1917 75.3783 2.78683 74.3577 2.78259Z" fill="white"/>
<path d="M40.6718 84.3484H32.2839C31.2408 84.3484 30.3571 84.4768 29.6328 84.7337C28.9084 84.9905 28.3289 85.3186 27.8943 85.7181C27.4887 86.1176 27.17 86.6598 26.9382 87.3446C26.7064 88.0295 26.5615 88.7001 26.5036 89.3564C26.4456 90.0127 26.4167 90.826 26.4167 91.7962C26.4167 93.0232 26.4746 94.0362 26.5905 94.8352C26.7064 95.6056 26.9527 96.3761 27.3293 97.1465C27.706 97.8885 28.3 98.4449 29.1112 98.8159C29.9515 99.1583 31.009 99.3295 32.2839 99.3295H41.1934V103.182H31.0235C27.3438 103.182 24.7796 102.226 23.3309 100.314C21.8822 98.3736 21.1579 95.5343 21.1579 91.7962C21.1579 88.0866 21.8822 85.2758 23.3309 83.364C24.7796 81.4521 27.3438 80.4961 31.0235 80.4961H40.6718V84.3484Z" fill="white"/>
<path d="M67.1881 91.7962C67.1881 96.1906 66.2174 99.2296 64.2762 100.913C62.3639 102.597 59.2492 103.439 54.9321 103.439C50.615 103.439 47.4858 102.597 45.5445 100.913C43.6323 99.2296 42.6761 96.1906 42.6761 91.7962C42.6761 87.4588 43.6467 84.4483 45.588 82.7647C47.5293 81.0811 50.6439 80.2393 54.9321 80.2393C59.2202 80.2393 62.3349 81.0811 64.2762 82.7647C66.2174 84.4483 67.1881 87.4588 67.1881 91.7962ZM47.9349 91.7962C47.9349 94.6212 48.4564 96.6329 49.4995 97.8314C50.5425 99.0013 52.3534 99.5863 54.9321 99.5863C57.5108 99.5863 59.3216 99.0013 60.3647 97.8314C61.4078 96.6329 61.9293 94.6212 61.9293 91.7962C61.9293 88.9997 61.4078 87.0165 60.3647 85.8465C59.3216 84.6766 57.5108 84.0916 54.9321 84.0916C52.3534 84.0916 50.5425 84.6766 49.4995 85.8465C48.4564 87.0165 47.9349 88.9997 47.9349 91.7962Z" fill="white"/>
<path d="M70.4921 103.182V84.3484C70.4921 81.7802 71.7959 80.4961 74.4036 80.4961H82.4873C85.3267 80.4961 87.5288 81.0811 89.0934 82.2511C90.6579 83.421 91.4402 85.4185 91.4402 88.2435V103.182H86.3553V89.5704C86.3553 87.8012 85.9787 86.4886 85.2253 85.6325C84.472 84.7765 83.2406 84.3484 81.5312 84.3484H76.8808C76.0116 84.3484 75.577 84.7765 75.577 85.6325V103.182H70.4921Z" fill="white"/>
<path d="M94.8832 103.182V99.3295H107.834C108.414 99.3295 108.907 99.1583 109.312 98.8159C109.747 98.4734 109.964 97.9598 109.964 97.275C109.964 96.8184 109.877 96.4332 109.703 96.1193C109.529 95.7768 109.24 95.5058 108.834 95.306C108.428 95.0777 108.081 94.9208 107.791 94.8352C107.501 94.721 107.038 94.5926 106.4 94.45C105.763 94.2787 105.343 94.1646 105.14 94.1075L100.707 92.909C98.331 92.2813 96.7085 91.468 95.8393 90.4693C94.9991 89.442 94.5789 88.058 94.5789 86.3174C94.5789 84.2628 95.1005 82.779 96.1435 81.8658C97.1866 80.9527 98.8671 80.4961 101.185 80.4961H114.18V84.3484H101.967C101.098 84.3484 100.475 84.4911 100.098 84.7765C99.7218 85.0618 99.5335 85.604 99.5335 86.403C99.5335 87.0022 99.7363 87.5159 100.142 87.9439C100.577 88.3434 100.982 88.6145 101.359 88.7571C101.764 88.8998 102.358 89.0853 103.141 89.3136L108.095 90.6833C109.109 90.9686 109.892 91.2112 110.442 91.4109C110.993 91.5821 111.616 91.8532 112.311 92.2242C113.035 92.5666 113.571 92.9518 113.919 93.3799C114.296 93.8079 114.614 94.3643 114.875 95.0492C115.136 95.734 115.266 96.5188 115.266 97.4034C115.266 99.2867 114.846 100.728 114.006 101.726C113.166 102.697 111.703 103.182 109.616 103.182H94.8832Z" fill="white"/>
<path d="M131.23 103.182H128.058C125.305 103.182 123.205 102.611 121.756 101.47C120.307 100.328 119.583 98.4306 119.583 95.7768V84.3484H116.41V80.4961H119.583V73.2196H124.668V80.4961H131.23V84.3484H124.668V94.7496C124.668 96.4046 125.102 97.5888 125.972 98.3022C126.841 98.9871 128.174 99.3295 129.97 99.3295H131.23V103.182Z" fill="white"/>
<path d="M133.222 103.182V89.0568C133.222 86.0605 133.99 83.8919 135.525 82.5507C137.061 81.181 139.393 80.4961 142.522 80.4961H145.956V84.3484H143.826C141.827 84.3484 140.407 84.8335 139.567 85.8037C138.727 86.7739 138.307 88.3006 138.307 90.3837V103.182H133.222Z" fill="white"/>
<path d="M169.245 80.4961V99.3295C169.245 101.898 167.941 103.182 165.334 103.182H156.902C154.063 103.182 151.861 102.597 150.296 101.427C148.732 100.257 147.949 98.2594 147.949 95.4344V80.4961H153.034V94.1075C153.034 95.8767 153.411 97.1894 154.164 98.0454C154.917 98.9015 156.149 99.3295 157.858 99.3295H162.856C163.726 99.3295 164.16 98.9015 164.16 98.0454V80.4961H169.245Z" fill="white"/>
<path d="M192.063 84.3484H183.675C182.632 84.3484 181.749 84.4768 181.024 84.7337C180.3 84.9905 179.72 85.3186 179.286 85.7181C178.88 86.1176 178.562 86.6598 178.33 87.3446C178.098 88.0295 177.953 88.7001 177.895 89.3564C177.837 90.0127 177.808 90.826 177.808 91.7962C177.808 93.0232 177.866 94.0362 177.982 94.8352C178.098 95.6056 178.344 96.3761 178.721 97.1465C179.098 97.8885 179.691 98.4449 180.503 98.8159C181.343 99.1583 182.401 99.3295 183.675 99.3295H192.585V103.182H182.415C178.735 103.182 176.171 102.226 174.722 100.314C173.274 98.3736 172.549 95.5343 172.549 91.7962C172.549 88.0866 173.274 85.2758 174.722 83.364C176.171 81.4521 178.735 80.4961 182.415 80.4961H192.063V84.3484Z" fill="white"/>
<path d="M208.857 103.182H205.685C202.932 103.182 200.831 102.611 199.383 101.47C197.934 100.328 197.21 98.4306 197.21 95.7768V84.3484H194.037V80.4961H197.21V73.2196H202.295V80.4961H208.857V84.3484H202.295V94.7496C202.295 96.4046 202.729 97.5888 203.598 98.3022C204.468 98.9871 205.8 99.3295 207.597 99.3295H208.857V103.182Z" fill="white"/>
<path d="M210.849 103.182V80.4961H215.934V103.182H210.849ZM215.934 77.4999H210.849V72.8772H215.934V77.4999Z" fill="white"/>
<path d="M243.748 91.7962C243.748 96.1906 242.777 99.2296 240.836 100.913C238.924 102.597 235.809 103.439 231.492 103.439C227.175 103.439 224.046 102.597 222.104 100.913C220.192 99.2296 219.236 96.1906 219.236 91.7962C219.236 87.4588 220.207 84.4483 222.148 82.7647C224.089 81.0811 227.204 80.2393 231.492 80.2393C235.78 80.2393 238.895 81.0811 240.836 82.7647C242.777 84.4483 243.748 87.4588 243.748 91.7962ZM224.495 91.7962C224.495 94.6212 225.016 96.6329 226.059 97.8314C227.102 99.0013 228.913 99.5863 231.492 99.5863C234.071 99.5863 235.881 99.0013 236.924 97.8314C237.968 96.6329 238.489 94.6212 238.489 91.7962C238.489 88.9997 237.968 87.0165 236.924 85.8465C235.881 84.6766 234.071 84.0916 231.492 84.0916C228.913 84.0916 227.102 84.6766 226.059 85.8465C225.016 87.0165 224.495 88.9997 224.495 91.7962Z" fill="white"/>
<path d="M247.052 103.182V84.3484C247.052 81.7802 248.356 80.4961 250.963 80.4961H259.047C261.887 80.4961 264.089 81.0811 265.653 82.2511C267.218 83.421 268 85.4185 268 88.2435V103.182H262.915V89.5704C262.915 87.8012 262.538 86.4886 261.785 85.6325C261.032 84.7765 259.8 84.3484 258.091 84.3484H253.441C252.571 84.3484 252.137 84.7765 252.137 85.6325V103.182H247.052Z" fill="white"/>
</g>
<defs>
<clipPath id="clip0_43927_45">
<rect width="320" height="128" fill="white"/>
</clipPath>
</defs>
</svg>
